<svg width="22" height="20" viewBox="0 0 22 20" fill="none" xmlns="http://www.w3.org/2000/svg">
<g clip-path="url(#clip0)">
<path d="M21.1511 4.17858C21.0293 4.0145 20.8334 3.91308 20.6205 3.90453L7.42413 3.36977C7.0455 3.35419 6.7291 3.629 6.71291 3.9833C6.69682 4.33747 6.98866 4.63672 7.36548 4.65194L19.6684 5.15053L17.2494 12.2461H6.48449L4.53964 2.29067C4.49689 2.07247 4.33755 1.89045 4.11779 1.80939L0.932463 0.632941C0.5814 0.503726 0.185252 0.665837 0.0473785 0.995476C-0.0902569 1.32529 0.0821325 1.69794 0.433005 1.82756L3.26527 2.87359L5.24444 13.0038C5.30409 13.3083 5.58641 13.5295 5.9159 13.5295H6.24421L5.49452 15.4872C5.43178 15.6512 5.45763 15.8333 5.56441 15.9757C5.67105 16.1183 5.84449 16.203 6.02964 16.203H6.55547C6.22964 16.5439 6.02964 16.9928 6.02964 17.4864C6.02964 18.548 6.94843 19.4116 8.07736 19.4116C9.2063 19.4116 10.1251 18.548 10.1251 17.4864C10.1251 16.9929 9.92509 16.5439 9.59931 16.203H14.0639C13.7379 16.5439 13.5379 16.9928 13.5379 17.4864C13.5379 18.548 14.4565 19.4116 15.5857 19.4116C16.7149 19.4116 17.6334 18.548 17.6334 17.4864C17.6334 16.9929 17.4334 16.5439 17.1077 16.203H17.7472C18.0614 16.203 18.316 15.9636 18.316 15.6683C18.316 15.3729 18.0613 15.1335 17.7472 15.1335H6.83898L7.45322 13.5293H17.7471C18.044 13.5293 18.3066 13.349 18.397 13.0835L21.2411 4.74132C21.3064 4.55092 21.2729 4.34275 21.1511 4.17858ZM8.07741 18.3423C7.57548 18.3423 7.16729 17.9585 7.16729 17.4867C7.16729 17.0148 7.57548 16.631 8.07741 16.631C8.57935 16.631 8.98749 17.0148 8.98749 17.4867C8.98749 17.9585 8.57935 18.3423 8.07741 18.3423ZM15.5857 18.3423C15.0837 18.3423 14.6756 17.9585 14.6756 17.4867C14.6756 17.0148 15.0837 16.631 15.5857 16.631C16.0876 16.631 16.4957 17.0148 16.4957 17.4867C16.4957 17.9585 16.0876 18.3423 15.5857 18.3423Z" fill="white"/>
</g>
<defs>
<clipPath id="clip0">
<rect width="21.2739" height="20" fill="white"/>
</clipPath>
</defs>
</svg>
